<svg data-v-423bf9ae="" xmlns="http://www.w3.org/2000/svg" viewBox="0 0 323.3431870270953 60" class="font"><!----><!----><defs data-v-423bf9ae=""><linearGradient data-v-423bf9ae="" gradientTransform="rotate(25)" id="75bfcde0-7ad2-49ae-8169-e48326d6f27e" x1="0%" y1="0%" x2="100%" y2="0%"><stop data-v-423bf9ae="" offset="0%" style="stop-color: rgb(112, 36, 61); stop-opacity: 1;"></stop><stop data-v-423bf9ae="" offset="100%" style="stop-color: rgb(193, 87, 103); stop-opacity: 1;"></stop></linearGradient></defs><g data-v-423bf9ae="" id="1c973a66-bfef-48d2-a474-fe436da572a7" fill="url(#75bfcde0-7ad2-49ae-8169-e48326d6f27e)" transform="matrix(4.437869672226663,0,0,4.437869672226663,-6.390535767274457,-15.221893510415796)"><path d="M3.39 13.78L4.52 13.78L4.52 7.57L7.38 7.57L7.38 6.64L4.52 6.64L4.52 6.27C4.52 5.10 5.03 4.37 6.24 4.37C6.83 4.37 7.27 4.44 7.83 4.72L8.09 3.85C7.45 3.56 6.80 3.43 6.13 3.43C4.26 3.43 3.39 4.56 3.39 6.31L3.39 6.64L1.44 6.72L1.44 7.57L3.39 7.57ZM11.84 13.96C12.81 13.96 13.78 13.41 14.53 12.80L14.57 12.80L14.67 13.78L15.61 13.78L15.61 9.38C15.61 7.63 14.71 6.47 12.85 6.47C11.66 6.47 10.65 7.03 10.11 7.49L10.56 8.29C11.05 7.87 11.77 7.42 12.66 7.42C13.97 7.42 14.43 8.27 14.46 9.25C10.95 9.56 9.53 10.33 9.53 11.94C9.53 13.22 10.57 13.96 11.84 13.96ZM12.15 13.03C11.37 13.03 10.65 12.68 10.65 11.86C10.65 10.89 11.55 10.28 14.46 10.02L14.46 11.94C13.69 12.64 12.92 13.03 12.15 13.03ZM20.59 13.96C21.43 13.96 22.25 13.43 22.81 12.82L22.85 12.82L22.95 13.78L23.90 13.78L23.90 3.60L22.75 3.60L22.75 6.06L22.79 7.41C22.16 6.82 21.56 6.47 20.73 6.47C19.12 6.47 17.64 7.91 17.64 10.22C17.64 12.60 18.82 13.96 20.59 13.96ZM20.83 12.99C19.57 12.99 18.83 11.93 18.83 10.21C18.83 8.57 19.78 7.43 20.96 7.43C21.55 7.43 22.13 7.67 22.75 8.29L22.75 11.89C22.15 12.61 21.50 12.99 20.83 12.99ZM28.99 13.96C29.83 13.96 30.65 13.43 31.21 12.82L31.25 12.82L31.35 13.78L32.30 13.78L32.30 3.60L31.15 3.60L31.15 6.06L31.19 7.41C30.56 6.82 29.96 6.47 29.13 6.47C27.52 6.47 26.04 7.91 26.04 10.22C26.04 12.60 27.22 13.96 28.99 13.96ZM29.23 12.99C27.97 12.99 27.23 11.93 27.23 10.21C27.23 8.57 28.18 7.43 29.36 7.43C29.95 7.43 30.53 7.67 31.15 8.29L31.15 11.89C30.55 12.61 29.90 12.99 29.23 12.99ZM35.43 16.81C36.97 16.81 37.80 15.74 38.33 14.36L41.31 6.64L40.22 6.64L38.74 10.65C38.50 11.30 38.25 12.04 38.01 12.71L37.95 12.71C37.67 12.03 37.38 11.28 37.11 10.65L35.45 6.64L34.29 6.64L37.46 13.80L37.27 14.31C36.90 15.25 36.34 15.86 35.39 15.86C35.18 15.86 34.96 15.82 34.78 15.76L34.54 16.67C34.78 16.76 35.11 16.81 35.43 16.81ZM46.48 13.96C48.10 13.96 49.56 12.53 49.56 10.09C49.56 7.88 48.57 6.47 46.73 6.47C45.93 6.47 45.07 6.90 44.42 7.57L44.45 6.17L44.45 3.60L43.30 3.60L43.30 13.78L44.23 13.78L44.32 12.98L44.37 12.98C45.01 13.58 45.82 13.96 46.48 13.96ZM46.30 12.99C45.81 12.99 45.09 12.74 44.45 12.12L44.45 8.53C45.15 7.78 45.85 7.43 46.45 7.43C47.81 7.43 48.37 8.51 48.37 10.11C48.37 11.89 47.49 12.99 46.30 12.99ZM56.08 13.96C56.83 13.96 57.30 13.76 57.92 13.52L57.62 12.66C57.12 12.89 56.73 13.01 56.34 13.01C55.52 13.01 55.01 12.54 55.01 11.49L55.01 3.60L51.53 3.60L51.53 4.54L53.86 4.54L53.86 11.41C53.86 13.09 54.64 13.96 56.08 13.96ZM63 13.96C64.79 13.96 66.36 12.59 66.36 10.22C66.36 7.83 64.79 6.47 63 6.47C61.21 6.47 59.64 7.83 59.64 10.22C59.64 12.59 61.21 13.96 63 13.96ZM63 13.01C61.70 13.01 60.83 11.89 60.83 10.22C60.83 8.55 61.70 7.42 63 7.42C64.30 7.42 65.17 8.55 65.17 10.22C65.17 11.89 64.30 13.01 63 13.01ZM71.12 16.95C73.14 16.95 74.30 15.85 74.30 13.78L74.30 6.64L73.37 6.64L73.28 7.43L73.23 7.43C72.63 6.83 71.95 6.47 71.15 6.47C69.50 6.47 68.04 7.87 68.04 10.11C68.04 12.36 69.23 13.71 70.98 13.71C71.82 13.71 72.66 13.23 73.19 12.64L73.18 13.78C73.16 15.44 72.42 16.03 71.12 16.03C70.43 16.03 69.65 15.83 68.95 14.94L68.39 15.64C69.27 16.69 70.24 16.95 71.12 16.95ZM71.23 12.75C69.99 12.75 69.22 11.72 69.22 10.09C69.22 8.54 70.20 7.43 71.34 7.43C71.95 7.43 72.53 7.67 73.15 8.29L73.15 11.66C72.53 12.38 71.89 12.75 71.23 12.75Z"></path></g><!----><!----></svg>